<mxfile host="app.diagrams.net" modified="2023-08-03T01:35:07.071Z" agent="Mozilla/5.0 (Windows NT 10.0; Win64; x64) AppleWebKit/537.36 (KHTML, like Gecko) Chrome/115.0.0.0 Safari/537.36" etag="fdUmkJr9djuhMdFnvHcU" version="21.6.6" type="github">
  <diagram name="Halaman-1" id="ZnmIlohPSTolmdWob6vo">
    <mxGraphModel dx="794" dy="712" grid="1" gridSize="10" guides="1" tooltips="1" connect="1" arrows="1" fold="1" page="1" pageScale="1" pageWidth="827" pageHeight="1169" math="0" shadow="0">
      <root>
        <mxCell id="0" />
        <mxCell id="1" parent="0" />
        <mxCell id="MbOYTD_M4D-QXrhVu9PR-1" value="Pengguna" style="rounded=0;whiteSpace=wrap;html=1;" vertex="1" parent="1">
          <mxGeometry x="210" y="250" width="100" height="60" as="geometry" />
        </mxCell>
        <mxCell id="MbOYTD_M4D-QXrhVu9PR-2" value="Menampilkan buku" style="rounded=0;whiteSpace=wrap;html=1;" vertex="1" parent="1">
          <mxGeometry x="640" y="250" width="120" height="60" as="geometry" />
        </mxCell>
        <mxCell id="MbOYTD_M4D-QXrhVu9PR-3" value="Sistem plikasi buku digital" style="ellipse;whiteSpace=wrap;html=1;aspect=fixed;" vertex="1" parent="1">
          <mxGeometry x="450" y="240" width="80" height="80" as="geometry" />
        </mxCell>
        <mxCell id="MbOYTD_M4D-QXrhVu9PR-5" value="" style="endArrow=classic;html=1;rounded=0;exitX=1;exitY=0.15;exitDx=0;exitDy=0;exitPerimeter=0;" edge="1" parent="1" source="MbOYTD_M4D-QXrhVu9PR-1">
          <mxGeometry relative="1" as="geometry">
            <mxPoint x="310" y="289.5" as="sourcePoint" />
            <mxPoint x="449" y="260" as="targetPoint" />
          </mxGeometry>
        </mxCell>
        <mxCell id="MbOYTD_M4D-QXrhVu9PR-6" value="permintaan buku" style="edgeLabel;resizable=0;html=1;align=center;verticalAlign=middle;" connectable="0" vertex="1" parent="MbOYTD_M4D-QXrhVu9PR-5">
          <mxGeometry relative="1" as="geometry" />
        </mxCell>
        <mxCell id="MbOYTD_M4D-QXrhVu9PR-7" value="buku" style="edgeStyle=segmentEdgeStyle;endArrow=classic;html=1;curved=0;rounded=0;endSize=8;startSize=8;exitX=0.5;exitY=1;exitDx=0;exitDy=0;entryX=0.6;entryY=1;entryDx=0;entryDy=0;entryPerimeter=0;" edge="1" parent="1" source="MbOYTD_M4D-QXrhVu9PR-3" target="MbOYTD_M4D-QXrhVu9PR-1">
          <mxGeometry width="50" height="50" relative="1" as="geometry">
            <mxPoint x="350" y="370" as="sourcePoint" />
            <mxPoint x="270" y="400" as="targetPoint" />
            <Array as="points">
              <mxPoint x="490" y="340" />
              <mxPoint x="270" y="340" />
            </Array>
          </mxGeometry>
        </mxCell>
        <mxCell id="MbOYTD_M4D-QXrhVu9PR-8" value="" style="endArrow=classic;html=1;rounded=0;exitX=1;exitY=0.75;exitDx=0;exitDy=0;entryX=-0.012;entryY=0.663;entryDx=0;entryDy=0;entryPerimeter=0;" edge="1" parent="1" source="MbOYTD_M4D-QXrhVu9PR-1" target="MbOYTD_M4D-QXrhVu9PR-3">
          <mxGeometry relative="1" as="geometry">
            <mxPoint x="360" y="370" as="sourcePoint" />
            <mxPoint x="460" y="370" as="targetPoint" />
            <Array as="points" />
          </mxGeometry>
        </mxCell>
        <mxCell id="MbOYTD_M4D-QXrhVu9PR-9" value="Id Pengguna" style="edgeLabel;resizable=0;html=1;align=center;verticalAlign=middle;" connectable="0" vertex="1" parent="MbOYTD_M4D-QXrhVu9PR-8">
          <mxGeometry relative="1" as="geometry" />
        </mxCell>
        <mxCell id="MbOYTD_M4D-QXrhVu9PR-12" value="wd" style="endArrow=classic;html=1;rounded=0;entryX=0;entryY=0.5;entryDx=0;entryDy=0;exitX=1;exitY=0.5;exitDx=0;exitDy=0;" edge="1" parent="1" source="MbOYTD_M4D-QXrhVu9PR-3" target="MbOYTD_M4D-QXrhVu9PR-2">
          <mxGeometry relative="1" as="geometry">
            <mxPoint x="360" y="370" as="sourcePoint" />
            <mxPoint x="460" y="370" as="targetPoint" />
          </mxGeometry>
        </mxCell>
        <mxCell id="MbOYTD_M4D-QXrhVu9PR-13" value="meminta info buku" style="edgeLabel;resizable=0;html=1;align=center;verticalAlign=middle;" connectable="0" vertex="1" parent="MbOYTD_M4D-QXrhVu9PR-12">
          <mxGeometry relative="1" as="geometry" />
        </mxCell>
      </root>
    </mxGraphModel>
  </diagram>
</mxfile>
